<svg width="59" height="85" viewBox="0 0 59 85" fill="none" xmlns="http://www.w3.org/2000/svg">
<g filter="url(#filter0_d)">
<path d="M15.5 73.1719C13 75.6719 10.625 76.9219 8.375 76.9219C6.9375 76.9219 5.96875 76.3906 5.46875 75.3281C6.1875 74.4531 6.54688 73.1406 6.54688 71.3906V70.6875C6.54688 70.5 6.53125 70.3281 6.5 70.1719C4.9375 68.7656 4.15625 67.1094 4.15625 65.2031C4.15625 63.2656 5.0625 61.2969 6.875 59.2969C6.34375 58.2344 6.07812 57.1094 6.07812 55.9219C6.07812 54.7031 6.25 53.5781 6.59375 52.5469C6.96875 51.4844 7.46875 50.5625 8.09375 49.7812C9.40625 48.0625 10.6875 47.2031 11.9375 47.2031C13.2188 47.2031 14.125 47.7031 14.6562 48.7031C13.5312 49.8906 12.9688 51.75 12.9688 54.2812C12.9688 56.8125 13.3281 59.0156 14.0469 60.8906C14.7969 62.7656 15.8438 64.375 17.1875 65.7188C20.0625 68.6562 23.7344 70.125 28.2031 70.125C31.2031 70.125 33.75 69.2656 35.8438 67.5469C38.0938 65.7031 39.2188 63.1875 39.2188 60C39.2188 57.75 38.6875 55.9219 37.625 54.5156C35.9688 52.3281 33.375 50.0156 29.8438 47.5781C27.125 45.6719 24.9531 44.7188 23.3281 44.7188C21.6719 44.7188 19.8438 45.3906 17.8438 46.7344C18.375 45.1406 18.6406 43.6562 18.6406 42.2812C18.6406 41.9688 18.3438 41.5625 17.75 41.0625L16.0156 39.5156C10.5469 34.4844 7.3125 29.8125 6.3125 25.5C5.96875 24 5.79688 22.125 5.79688 19.875C5.79688 17.5938 6.34375 15.2969 7.4375 12.9844C8.5625 10.6406 10.0938 8.65625 12.0312 7.03125C16.0625 3.59375 21.1875 1.875 27.4062 1.875C31.1875 1.875 34.6562 2.48438 37.8125 3.70312C39.1562 4.23438 40.6875 4.5 42.4062 4.5C43.125 4.5 43.7656 4.46875 44.3281 4.40625C44.9219 4.3125 45.4375 3.98438 45.875 3.42188C46.2812 2.82812 46.4844 2.29688 46.4844 1.82812C46.4844 1.35938 46.4219 0.96875 46.2969 0.65625C46.5156 0.5625 46.8125 0.515625 47.1875 0.515625C47.5938 0.515625 48.0312 0.65625 48.5 0.9375C48.9688 1.1875 49.3906 1.54688 49.7656 2.01562C50.6094 3.07812 51.0312 4.28125 51.0312 5.625C51.0312 6.9375 50.6562 7.9375 49.9062 8.625C50.9688 9.5625 51.5 11.0156 51.5 12.9844C51.5 14.9219 50.8438 16.5469 49.5312 17.8594C49.7812 18.7031 49.9062 19.4688 49.9062 20.1562C49.9062 20.8125 49.7812 21.4531 49.5312 22.0781C49.3125 22.6719 49 23.1875 48.5938 23.625C47.6875 24.5938 46.8281 25.0781 46.0156 25.0781C44.7344 25.0781 43.6562 24.8594 42.7812 24.4219C43.3125 23.1719 43.5781 21.8281 43.5781 20.3906C43.5781 18.9531 43.25 17.4844 42.5938 15.9844C41.9688 14.4531 41.0781 13.125 39.9219 12C37.4844 9.6875 34.2969 8.53125 30.3594 8.53125C27.8594 8.53125 25.8125 9.29688 24.2188 10.8281C22.7188 12.2656 21.9688 14 21.9688 16.0312C21.9688 17.5625 22.3438 18.8438 23.0938 19.875C24.4062 21.6562 26.4844 23.5 29.3281 25.4062L31.5781 26.9062C32.8281 27.6875 33.6719 28.0781 34.1094 28.0781C34.5469 28.0781 34.9844 28.0312 35.4219 27.9375C35.8594 27.8438 36.3438 27.7188 36.875 27.5625C38 27.1875 39.0938 26.6562 40.1562 25.9688L39.5469 28.5938C39.3594 29.4688 39.2656 30.1094 39.2656 30.5156C39.2656 31.1719 39.5938 31.7656 40.25 32.2969C46.0938 37.3594 50 41.5938 51.9688 45C53.6875 47.9688 54.5469 51.1719 54.5469 54.6094C54.5469 58.0469 53.9844 61 52.8594 63.4688C51.7344 65.9375 50.0938 68.125 47.9375 70.0312C43.1875 74.2812 37.0156 76.4062 29.4219 76.4062C24.0781 76.4062 19.4375 75.3281 15.5 73.1719ZM12.3125 16.4062C11.125 16.9062 10.5312 18.2031 10.5312 20.2969C10.5312 24.5781 13.3906 29.2812 19.1094 34.4062L21.9219 36.9375C22.8906 37.8125 23.3125 38.4844 23.1875 38.9531C23.0938 39.4219 23 39.7969 22.9062 40.0781C22.8438 40.3594 22.7656 40.625 22.6719 40.875C22.5781 41.125 22.5156 41.3125 22.4844 41.4375C23.5781 40.7812 24.4688 40.4531 25.1562 40.4531C26.5312 40.4531 27.8281 40.8281 29.0469 41.5781C35.0781 45.3281 39.1719 48.6719 41.3281 51.6094C42.8906 53.7656 43.7031 56.4531 43.7656 59.6719C43.7656 60.8281 43.6875 61.7969 43.5312 62.5781C45.1875 61.5156 46.0156 59.8281 46.0156 57.5156C46.0156 55.2656 45.7031 53.5312 45.0781 52.3125C44.4844 51.0938 43.7812 50.0156 42.9688 49.0781C42.1562 48.1094 41.0938 47.0625 39.7812 45.9375C38.5 44.8125 36.9062 43.5938 35 42.2812L28.3438 37.7344C22.875 34.1406 18.7188 30.3438 15.875 26.3438C13.375 22.8125 12.1875 19.5 12.3125 16.4062Z" fill="url(#paint0_linear)"/>
</g>
<defs>
<filter id="filter0_d" x="0.15625" y="0.515625" width="58.3906" height="84.4062" filterUnits="userSpaceOnUse" color-interpolation-filters="sRGB">
<feFlood flood-opacity="0" result="BackgroundImageFix"/>
<feColorMatrix in="SourceAlpha" type="matrix" values="0 0 0 0 0 0 0 0 0 0 0 0 0 0 0 0 0 0 127 0" result="hardAlpha"/>
<feOffset dy="4"/>
<feGaussianBlur stdDeviation="2"/>
<feComposite in2="hardAlpha" operator="out"/>
<feColorMatrix type="matrix" values="0 0 0 0 0 0 0 0 0 0 0 0 0 0 0 0 0 0 0.25 0"/>
<feBlend mode="normal" in2="BackgroundImageFix" result="effect1_dropShadow"/>
<feBlend mode="normal" in="SourceGraphic" in2="effect1_dropShadow" result="shape"/>
</filter>
<linearGradient id="paint0_linear" x1="30" y1="-20" x2="30" y2="90" gradientUnits="userSpaceOnUse">
<stop stop-color="#BC3A3A"/>
<stop offset="1" stop-color="#161718"/>
</linearGradient>
</defs>
</svg>
